<?xml version="1.0" encoding="UTF-8" standalone="no"?>
<!-- Created with Inkscape (http://www.inkscape.org/) -->

<svg
   xmlns:dc="http://purl.org/dc/elements/1.1/"
   xmlns:cc="http://creativecommons.org/ns#"
   xmlns:rdf="http://www.w3.org/1999/02/22-rdf-syntax-ns#"
   xmlns:svg="http://www.w3.org/2000/svg"
   xmlns="http://www.w3.org/2000/svg"
   xmlns:sodipodi="http://sodipodi.sourceforge.net/DTD/sodipodi-0.dtd"
   xmlns:inkscape="http://www.inkscape.org/namespaces/inkscape"
   width="1080"
   height="1080"
   id="svg2"
   version="1.1"
   inkscape:version="0.48.4 r9939"
   sodipodi:docname="wfi.png">
  <defs
     id="defs4" />
  <sodipodi:namedview
     id="base"
     pagecolor="#ffffff"
     bordercolor="#666666"
     borderopacity="1.0"
     inkscape:pageopacity="0.0"
     inkscape:pageshadow="2"
     inkscape:zoom="0.35"
     inkscape:cx="364.13149"
     inkscape:cy="666.00264"
     inkscape:document-units="px"
     inkscape:current-layer="layer1-9"
     showgrid="false"
     inkscape:snap-grids="true"
     inkscape:window-width="1366"
     inkscape:window-height="706"
     inkscape:window-x="-8"
     inkscape:window-y="-8"
     inkscape:window-maximized="1" />
  <metadata
     id="metadata7">
    <rdf:RDF>
      <cc:Work
         rdf:about="">
        <dc:format>image/svg+xml</dc:format>
        <dc:type
           rdf:resource="http://purl.org/dc/dcmitype/StillImage" />
        <dc:title></dc:title>
      </cc:Work>
    </rdf:RDF>
  </metadata>
  <g
     inkscape:label="Layer 1"
     inkscape:groupmode="layer"
     id="layer1"
     transform="translate(0,27.63782)">
    <g
       transform="matrix(1.8131083,0,0,1.2172087,-452.69046,-221.65087)"
       id="layer1-9"
       inkscape:label="Layer 1">
      <g
         transform="matrix(0.3874497,0,0,0.54789802,321.54676,99.587056)"
         style="font-size:149.16539001px;font-style:normal;font-weight:normal;line-height:125%;letter-spacing:0px;word-spacing:0px;fill:#11b908;fill-opacity:1;stroke:none;font-family:Sans"
         id="text2985">
        <path
           d="m 380.10644,902.3194 -63.74853,-240.24512 32.61171,0 36.54479,157.48674 c 3.933,16.49711 7.3198,32.8849 10.16044,49.16339 6.11802,-25.67416 9.72333,-40.47779 10.81594,-44.41093 l 45.72196,-162.2392 38.34745,0 34.41437,121.59746 c 8.63069,30.15364 14.85804,58.5045 18.68209,85.05267 3.05882,-15.18598 7.04652,-32.61165 11.96309,-52.27707 l 37.69194,-154.37306 31.95621,0 -65.87895,240.24512 -30.64518,0 -50.6383,-183.05171 c -4.26099,-15.29508 -6.77378,-24.69074 -7.53839,-28.18701 -2.51295,11.03465 -4.86186,20.43031 -7.04675,28.18701 L 412.55428,902.3194 z"
           style="font-size:335.62210083px;fill:#11b908"
           id="path2996"
           inkscape:connector-curvature="0" />
        <path
           d="m 656.4047,902.3194 0,-240.24512 162.07532,0 0,28.35089 -130.28299,0 0,74.4006 112.74805,0 0,28.35089 -112.74805,0 0,109.14274 z"
           style="font-size:335.62210083px;fill:#11b908"
           id="path2998"
           inkscape:connector-curvature="0" />
        <path
           d="m 856.33584,695.99702 0,-33.92274 29.49803,0 0,33.92274 z m 0,206.32238 0,-174.03842 29.49803,0 0,174.03842 z"
           style="font-size:335.62210083px;fill:#11b908"
           id="path3000"
           inkscape:connector-curvature="0" />
      </g>
      <path
         sodipodi:type="arc"
         style="fill:#11b908;fill-opacity:1"
         id="path3002"
         sodipodi:cx="584.28571"
         sodipodi:cy="560"
         sodipodi:rx="470"
         sodipodi:ry="417.14285"
         d="m 1054.2857,560 a 470,417.14285 0 1 1 -939.99999,0 470,417.14285 0 1 1 939.99999,0 z"
         transform="matrix(0.62865391,0,0,1.0550751,180.98195,18.05592)" />
      <path
         sodipodi:type="arc"
         style="fill:#11b908;fill-opacity:1"
         id="path3004"
         sodipodi:cx="607.14288"
         sodipodi:cy="560"
         sodipodi:rx="47.142857"
         sodipodi:ry="37.142857"
         d="m 654.28574,560 a 47.142857,37.142857 0 1 1 -94.28571,0 47.142857,37.142857 0 1 1 94.28571,0 z"
         transform="matrix(0.55153903,0,0,0.8215518,249.67646,159.39177)" />
      <text
         xml:space="preserve"
         style="font-size:442.82281494px;font-style:normal;font-weight:normal;line-height:125%;letter-spacing:0px;word-spacing:0px;fill:#ffffff;fill-opacity:1;stroke:none;font-family:Sans"
         x="450.51611"
         y="555.62781"
         id="text3006"
         sodipodi:linespacing="125%"
         transform="scale(0.65226586,1.5331172)"><tspan
           sodipodi:role="line"
           id="tspan3008"
           x="450.51611"
           y="555.62781">WFi</tspan></text>
    </g>
  </g>
</svg>
